# xmcd
#
# Track frame offsets: 
#        150
#        10996
#        27784
#        38069
#        50392
#        63886
#        76004
#        86672
#        100830
#        112162
#        123540
#        137164
#        154326
#        165943
#        177871
#        187301
#        200842
#        211095
#        222152
#        246194
#        257341
#        270027
#        280164
#        290718
#        302299
#        314602
#
# Disc length: 4543 seconds
#
# Revision: 0
# Processed by: cddbd v1.5.2PL0 Copyright (c) Steve Scherf et al.
# Submitted via: ExactAudioCopy v0.99pb5
#
DISCID=6b11bd1a
DTITLE=Various Artist - Nuggets Of The Golden Age Of Gospel 1945-1958 - Disc 
DTITLE=4
DYEAR=2009
DGENRE=Gospel
TTITLE0=Cleophus Robinson and Sister Josephine Jones - I Can See So Much
TTITLE1=O V Wright and The Sunset Travelers - Sit Down and Rest Awhile
TTITLE2=Evelyn Freeman and The Exciting Voices Chorus - Didn't It Rain
TTITLE3=Inez Andrews and The Caravans - I'm Not Tired Yet
TTITLE4=Hardie Clifton and The Brooklyn All Star Singers - Careless Soul
TTITLE5=Consolers - Glad To Be In That Number
TTITLE6=Lou Rawls and The Chosen Gospel Singers - Walk With Me
TTITLE7=Jackie Verdell and The Davis Sisters - I've Been Changed
TTITLE8=Ira Tucker and The Dixie Humming Birds - Let's Go Out To The Pro
TTITLE8=grams - Part 2
TTITLE9=Ollie Nightingale and The Dixie Nightengales - I've Been Lifted
TTITLE10=Dorothy Love Coates and The Gospel Harmonettes - Love Lifted Me
TTITLE11=Leon Lumpkins and The Gospel Clefs - Open Our Eyes
TTITLE12=Rosie Wallace and The Imperial Gospel Singers - My Father's Hou
TTITLE12=se
TTITLE13=Gospel Tones - Roll, Jordan, Roll
TTITLE14=Sister Rosetta Tharpe - Didn't It Rain
TTITLE15=Roberta Martin and The Roberta Martin Singers - Rock My Soul
TTITLE16=Paul Arnold and The Gospelaires - It's A Pity
TTITLE17=Little Sugar and The Hightower Brothers - Come By Here
TTITLE18=Della Reece and The Meditations - Hard To Get Along
TTITLE19=Brother Joe May - Mother Bowed
TTITLE20=Willie Joe Ligon and The Mighty Mighty Clouds Of Joy - Jesus Is
TTITLE20=Real
TTITLE21=Johnnie Taylor and The Soul Stirrers - The Love Of God
TTITLE22=Marion Williams and The Stars Of Faith - When I Lay This Body D
TTITLE22=own
TTITLE23=Howard 'Slim' Hunt and The Supreme Angels - Jesus Le Me Sleep 
TTITLE24=Victory Five - I Never Knew
TTITLE25=Clara Ward Singers and Sam Whinham - Didn't It Rain
EXTD=
EXTT0=
EXTT1=
EXTT2=
EXTT3=
EXTT4=
EXTT5=
EXTT6=
EXTT7=
EXTT8=
EXTT9=
EXTT10=
EXTT11=
EXTT12=
EXTT13=
EXTT14=
EXTT15=
EXTT16=
EXTT17=
EXTT18=
EXTT19=
EXTT20=
EXTT21=
EXTT22=
EXTT23=
EXTT24=
EXTT25=
PLAYORDER=
